<?xml version="1.0" encoding="iso-8859-1"?>
<!-- Generator: Adobe Illustrator 19.0.0, SVG Export Plug-In . SVG Version: 6.00 Build 0)  -->
<svg version="1.1" id="Layer_1" xmlns="http://www.w3.org/2000/svg" xmlns:xlink="http://www.w3.org/1999/xlink" x="0px" y="0px"
	 viewBox="0 0 512.009 512.009" style="enable-background:new 0 0 512.009 512.009;" xml:space="preserve">
<g>
	<path style="fill:#428249;" d="M154.048,367.627c1.494,23.368-14.899,33.033-14.314,4.055c0,0-21.704-294.826,200.759-367.173
		c0,0,13.453-3.409,1.304,15.137C341.798,19.642,135.882,83.427,154.048,367.627z"/>
	<path style="fill:#428249;" d="M345.091,366.053c13.164,19.358,4.093,36.002-10.227,10.799c0,0-154.437-196.126-0.286-372.089
		c0,0,8.177-7.268,7.223,14.879C341.798,19.642,197.585,149.069,345.091,366.053z"/>
</g>
<g>
	<path style="fill:#E64546;" d="M146.022,506.545c44.227,4.543,62.368-12.213,73.363-29.364c7.008-10.931,15.59-27.969,15.59-47.324
		c0-34.684-24.168-62.798-53.982-62.798c-13.344,0-21.71,4.518-34.974,4.518c-13.263,0-21.627-4.518-34.974-4.518
		c-29.814,0-53.982,28.114-53.982,62.798c0,19.352,8.582,36.391,15.59,47.324C83.651,494.336,101.792,511.088,146.022,506.545z"/>
	<path style="fill:#E64546;" d="M399.921,497.063c41.981-14.648,51.299-37.522,53.982-57.709
		c1.713-12.871,2.252-31.941-5.957-49.468c-14.712-31.414-48.523-46.614-75.522-33.968c-12.084,5.661-17.742,13.299-29.753,18.921
		c-12.01,5.629-21.508,5.089-33.589,10.751c-26.996,12.646-36.959,48.353-22.247,79.766c8.209,17.527,23.211,29.312,34.196,36.24
		C338.26,512.463,361.795,519.943,399.921,497.063z"/>
</g>
<ellipse transform="matrix(-0.5592 -0.8291 0.8291 -0.5592 502.3062 308.6463)" style="fill:#225E28;" cx="333.211" cy="20.778" rx="17.2" ry="27.026"/>
<g>
</g>
<g>
</g>
<g>
</g>
<g>
</g>
<g>
</g>
<g>
</g>
<g>
</g>
<g>
</g>
<g>
</g>
<g>
</g>
<g>
</g>
<g>
</g>
<g>
</g>
<g>
</g>
<g>
</g>
</svg>
